<svg width="48" height="48" viewBox="0 0 24 24" fill="none" xmlns="http://www.w3.org/2000/svg">
  <!-- Grey inactive dots (6x3 grid) -->
  <g fill="#bdc3c7" opacity="0.5">
    <!-- Row 1 (Top) -->
    <circle cx="4" cy="4" r="1.8"/>
    <circle cx="12" cy="4" r="1.8"/>
    <circle cx="20" cy="4" r="1.8"/>
    
    <!-- Row 2 -->
    <circle cx="4" cy="8" r="1.8"/>
    <circle cx="12" cy="8" r="1.8"/>
    <circle cx="20" cy="8" r="1.8"/>
    
    <!-- Row 3 -->
    <circle cx="4" cy="12" r="1.8"/>
    <circle cx="12" cy="12" r="1.8"/>
    <circle cx="20" cy="12" r="1.8"/>
    
    <!-- Row 4 -->
    <circle cx="4" cy="16" r="1.8"/>
    <circle cx="12" cy="16" r="1.8"/>
    <circle cx="20" cy="16" r="1.8"/>
    
    <!-- Row 5 -->
    <circle cx="4" cy="20" r="1.8"/>
    <circle cx="12" cy="20" r="1.8"/>
    <circle cx="20" cy="20" r="1.8"/>
  </g>

  <!-- Yellow active dots (EXAMPLE: 3 rows lit) -->
  <g fill="#f7df1e">
    <!-- Row 6 (Bottom) -->
    <circle cx="4" cy="20" r="1.8"/>
    <circle cx="12" cy="20" r="1.8"/>
    <circle cx="20" cy="20" r="1.8"/>
    
    <!-- Row 5 -->
    <circle cx="4" cy="16" r="1.8"/>
    <circle cx="12" cy="16" r="1.8"/>
    <circle cx="20" cy="16" r="1.8"/>
    
    <!-- Row 4 -->
    <circle cx="4" cy="12" r="1.8"/>
    <circle cx="12" cy="12" r="1.8"/>
    <circle cx="20" cy="12" r="1.8"/>
  </g>
</svg>