<?xml version="1.0" encoding="utf-8"?>
<!-- Generator: Adobe Illustrator 25.3.1, SVG Export Plug-In . SVG Version: 6.00 Build 0)  -->
<svg version="1.1" id="Layer_1" xmlns="http://www.w3.org/2000/svg" xmlns:xlink="http://www.w3.org/1999/xlink" x="0px" y="0px"
	 viewBox="0 0 500 500" style="enable-background:new 0 0 500 500;" xml:space="preserve">
<style type="text/css">
	.st0{opacity:0.5;}
	.st1{fill:#FFFFFF;}
</style>
<image style="overflow:visible;enable-background:new    ;" width="4750" height="4750" xlink:href="5E832DBE.png"  transform="matrix(0.1053 0 0 0.1053 0 0)">
</image>
<g class="st0">
	
		<image style="overflow:visible;enable-background:new    ;" width="1577" height="1576" xlink:href="5E832DC2.png"  transform="matrix(0.24 0 0 0.24 60.76 60.88)">
	</image>
</g>
<g>
	<path class="st1" d="M403.1,250c0,84.5-68.5,153.1-153.1,153.1c0,0,0,0,0,0V331c44.7,0,81-36.3,81-81l0,0L403.1,250z"/>
	<path class="st1" d="M250,96.9V169c-44.7,0-81,36.3-81,81H96.9C96.9,165.4,165.4,96.9,250,96.9z"/>
	<circle class="st1" cx="250" cy="250.9" r="46.8"/>
</g>
</svg>
